<svg width="40" height="40" viewBox="0 0 40 40" fill="none" xmlns="http://www.w3.org/2000/svg">
<path d="M16.6666 29.431V33.3333C16.6666 35.1743 18.159 36.6666 19.9999 36.6666C21.8409 36.6666 23.3333 35.1743 23.3333 33.3333V29.431M19.9999 3.33331V4.99998M4.99992 20H3.33325M9.16659 9.16665L8.16642 8.16648M30.8333 9.16665L31.8337 8.16648M36.6666 20H34.9999M29.9999 20C29.9999 25.5228 25.5228 30 19.9999 30C14.4771 30 9.99992 25.5228 9.99992 20C9.99992 14.4771 14.4771 9.99998 19.9999 9.99998C25.5228 9.99998 29.9999 14.4771 29.9999 20Z" stroke="black" stroke-width="2" stroke-linecap="round" stroke-linejoin="round"/>
</svg>
